<?xml version="1.0" standalone="no"?>
<!DOCTYPE svg PUBLIC "-//W3C//DTD SVG 20010904//EN"
 "http://www.w3.org/TR/2001/REC-SVG-20010904/DTD/svg10.dtd">
<svg version="1.0" xmlns="http://www.w3.org/2000/svg"
 width="120.000000pt" height="120.000000pt" viewBox="0 0 120.000000 120.000000"
 preserveAspectRatio="xMidYMid meet">
<metadata>
Created by potrace 1.14, written by Peter Selinger 2001-2017
</metadata>
<g transform="translate(0.000000,120.000000) scale(0.100000,-0.100000)"
fill="#000000" stroke="none">
<path d="M930 1035 c-37 -20 -56 -65 -54 -126 3 -85 4 -86 25 -46 25 47 34 48
14 0 -8 -20 -14 -38 -12 -39 2 -2 17 10 33 27 27 28 29 37 31 109 1 44 -1 81
-5 84 -4 2 -18 -2 -32 -9z"/>
<path d="M782 989 c-18 -12 -40 -35 -49 -52 -16 -33 -27 -163 -16 -206 l6 -24
18 24 c11 13 22 41 25 62 4 20 10 37 14 37 12 0 -8 -78 -26 -106 -22 -33 -2
-31 36 4 39 34 57 87 54 155 -1 28 -3 69 -3 90 -1 43 -12 46 -59 16z m5 -134
c0 -8 -4 -12 -9 -9 -5 3 -6 10 -3 15 9 13 12 11 12 -6z"/>
<path d="M365 978 c-52 -27 -91 -63 -120 -113 -39 -67 -48 -120 -45 -265 3
-189 3 -190 12 -190 11 0 68 80 68 97 0 7 4 13 8 13 15 0 33 102 32 180 -1 41
3 88 7 103 5 18 8 -19 7 -101 -2 -141 -16 -202 -60 -268 -14 -20 -23 -38 -21
-40 10 -10 92 44 127 84 69 78 85 185 66 435 -7 97 -12 101 -81 65z"/>
<path d="M615 983 c-44 -23 -74 -53 -98 -98 -18 -34 -21 -59 -22 -161 -1 -66
1 -128 5 -139 6 -16 9 -14 29 14 32 45 51 112 53 190 l1 66 6 -55 c8 -72 -5
-145 -34 -197 -26 -48 -24 -51 21 -24 83 50 109 126 100 290 -8 143 -8 143
-61 114z"/>
<path d="M1100 980 c-61 -20 -75 -30 -93 -65 -12 -25 -13 -32 -1 -42 11 -11
23 -9 61 6 55 21 86 57 81 92 -3 24 -3 24 -48 9z m-60 -75 c-13 -14 -26 -22
-29 -19 -3 3 5 14 19 24 34 27 38 25 10 -5z"/>
<path d="M952 819 c-13 -5 -31 -16 -40 -25 -15 -15 -13 -16 19 -10 l34 6 -30
-14 c-16 -8 -28 -15 -25 -16 82 -26 160 -17 180 20 11 21 7 25 -35 34 -62 13
-81 14 -103 5z"/>
<path d="M881 712 c-19 -10 -41 -28 -50 -41 l-15 -24 31 17 c34 17 88 22 97 8
3 -5 -8 -7 -23 -4 -16 2 -44 -4 -62 -14 l-34 -18 50 -12 c99 -24 170 -13 199
31 23 35 20 42 -21 50 -21 5 -45 10 -53 12 -49 11 -89 9 -119 -5z"/>
<path d="M755 663 c-16 -14 -46 -40 -65 -57 -147 -133 -363 -267 -603 -376
-27 -12 -46 -24 -43 -28 4 -3 32 -14 64 -24 l57 -18 78 48 c133 80 282 198
410 325 68 67 129 130 136 140 20 25 0 20 -34 -10z"/>
<path d="M840 593 c-55 -7 -72 -15 -110 -49 -47 -43 -51 -58 -10 -38 39 20
105 25 164 12 63 -13 54 -19 -16 -9 -41 5 -71 3 -109 -8 -64 -20 -72 -36 -22
-44 21 -4 58 -11 83 -16 107 -24 193 1 238 69 l23 34 -22 8 c-19 8 -140 35
-179 41 -8 2 -26 1 -40 0z"/>
<path d="M648 415 c-2 -2 -15 -6 -30 -9 -48 -8 -98 -42 -136 -90 -31 -41 -27
-49 12 -25 47 28 131 35 224 18 42 -7 81 -12 85 -11 5 1 6 -2 3 -7 -3 -5 -32
-4 -68 3 -79 14 -132 13 -183 -4 -41 -13 -88 -40 -82 -46 2 -2 55 -15 117 -28
215 -47 315 -20 393 106 l17 27 -52 15 c-128 37 -287 64 -300 51z m202 -119
c0 -2 -7 -7 -16 -10 -8 -3 -12 -2 -9 4 6 10 25 14 25 6z"/>
</g>
</svg>
